<mxfile host="app.diagrams.net" modified="2021-02-07T19:29:35.471Z" agent="5.0 (Macintosh; Intel Mac OS X 10_15_7) AppleWebKit/605.1.15 (KHTML, like Gecko) Version/14.0.2 Safari/605.1.15" etag="hEFhK5ndWxGKE43xxxIP" version="14.2.9" type="github">
  <diagram id="R2lEEEUBdFMjLlhIrx00" name="Page-1">
    <mxGraphModel dx="788" dy="474" grid="1" gridSize="10" guides="1" tooltips="1" connect="1" arrows="1" fold="1" page="1" pageScale="1" pageWidth="850" pageHeight="1100" math="0" shadow="0" extFonts="Permanent Marker^https://fonts.googleapis.com/css?family=Permanent+Marker">
      <root>
        <mxCell id="0" />
        <mxCell id="1" parent="0" />
        <mxCell id="xn4I2yA9XWvGKUYEzBW6-1" value="User" style="rounded=1;whiteSpace=wrap;html=1;" vertex="1" parent="1">
          <mxGeometry x="112" y="361" width="120" height="60" as="geometry" />
        </mxCell>
        <mxCell id="xn4I2yA9XWvGKUYEzBW6-4" value="" style="edgeStyle=entityRelationEdgeStyle;endArrow=ERzeroToMany;startArrow=ERone;endFill=1;startFill=0;exitX=0;exitY=0.5;exitDx=0;exitDy=0;entryX=1;entryY=0.5;entryDx=0;entryDy=0;" edge="1" parent="1" source="xn4I2yA9XWvGKUYEzBW6-7" target="xn4I2yA9XWvGKUYEzBW6-3">
          <mxGeometry width="100" height="100" relative="1" as="geometry">
            <mxPoint x="480" y="340" as="sourcePoint" />
            <mxPoint x="425" y="320" as="targetPoint" />
          </mxGeometry>
        </mxCell>
        <mxCell id="xn4I2yA9XWvGKUYEzBW6-3" value="UserTest" style="rounded=1;whiteSpace=wrap;html=1;" vertex="1" parent="1">
          <mxGeometry x="305" y="361" width="120" height="60" as="geometry" />
        </mxCell>
        <mxCell id="xn4I2yA9XWvGKUYEzBW6-6" value="" style="edgeStyle=entityRelationEdgeStyle;endArrow=ERzeroToMany;startArrow=ERone;endFill=1;startFill=0;" edge="1" parent="1" source="xn4I2yA9XWvGKUYEzBW6-1" target="xn4I2yA9XWvGKUYEzBW6-3">
          <mxGeometry width="100" height="100" relative="1" as="geometry">
            <mxPoint x="235" y="391" as="sourcePoint" />
            <mxPoint x="335" y="391" as="targetPoint" />
          </mxGeometry>
        </mxCell>
        <mxCell id="xn4I2yA9XWvGKUYEzBW6-7" value="Test" style="rounded=1;whiteSpace=wrap;html=1;" vertex="1" parent="1">
          <mxGeometry x="498" y="361" width="120" height="60" as="geometry" />
        </mxCell>
        <mxCell id="xn4I2yA9XWvGKUYEzBW6-10" value="Category" style="rounded=1;whiteSpace=wrap;html=1;" vertex="1" parent="1">
          <mxGeometry x="680" y="361" width="120" height="60" as="geometry" />
        </mxCell>
        <mxCell id="xn4I2yA9XWvGKUYEzBW6-15" value="" style="edgeStyle=entityRelationEdgeStyle;endArrow=ERzeroToMany;startArrow=ERone;endFill=1;startFill=0;exitX=0;exitY=0.5;exitDx=0;exitDy=0;entryX=1;entryY=0.5;entryDx=0;entryDy=0;" edge="1" parent="1" source="xn4I2yA9XWvGKUYEzBW6-10" target="xn4I2yA9XWvGKUYEzBW6-7">
          <mxGeometry width="100" height="100" relative="1" as="geometry">
            <mxPoint x="450" y="283.5" as="sourcePoint" />
            <mxPoint x="690" y="498.5" as="targetPoint" />
          </mxGeometry>
        </mxCell>
        <mxCell id="xn4I2yA9XWvGKUYEzBW6-16" value="Question" style="rounded=1;whiteSpace=wrap;html=1;" vertex="1" parent="1">
          <mxGeometry x="420" y="460" width="120" height="60" as="geometry" />
        </mxCell>
        <mxCell id="xn4I2yA9XWvGKUYEzBW6-17" value="" style="edgeStyle=entityRelationEdgeStyle;endArrow=ERzeroToMany;startArrow=ERone;endFill=1;startFill=0;entryX=1;entryY=0.5;entryDx=0;entryDy=0;" edge="1" parent="1" target="xn4I2yA9XWvGKUYEzBW6-16">
          <mxGeometry width="100" height="100" relative="1" as="geometry">
            <mxPoint x="550" y="421" as="sourcePoint" />
            <mxPoint x="730" y="460" as="targetPoint" />
          </mxGeometry>
        </mxCell>
        <mxCell id="xn4I2yA9XWvGKUYEzBW6-19" value="Reply" style="rounded=1;whiteSpace=wrap;html=1;" vertex="1" parent="1">
          <mxGeometry x="230" y="460" width="120" height="60" as="geometry" />
        </mxCell>
        <mxCell id="xn4I2yA9XWvGKUYEzBW6-20" value="" style="edgeStyle=entityRelationEdgeStyle;endArrow=ERzeroToMany;startArrow=ERone;endFill=1;startFill=0;entryX=1;entryY=0.5;entryDx=0;entryDy=0;exitX=0;exitY=0.5;exitDx=0;exitDy=0;" edge="1" parent="1" source="xn4I2yA9XWvGKUYEzBW6-16" target="xn4I2yA9XWvGKUYEzBW6-19">
          <mxGeometry width="100" height="100" relative="1" as="geometry">
            <mxPoint x="360" y="490" as="sourcePoint" />
            <mxPoint x="370" y="489.58" as="targetPoint" />
          </mxGeometry>
        </mxCell>
      </root>
    </mxGraphModel>
  </diagram>
</mxfile>
